# xmcd CD database file
#
# Track frame offsets:
#	150
#	18728
#	34857
#	51720
#	71244
#	89714
#	105862
#	125878
#	142299
#	160941
#
# Disc length: 2388 seconds
#
# Revision: 4
# Processed by: cddbd v1.5.1PL2 Copyright (c) Steve Scherf et al.
# Submitted via: CDex 1.70beta2
#
DISCID=9f09520a
DTITLE=James Blunt - Back to Bedlam
DYEAR=2005
DGENRE=New Age
TTITLE0=James Blunt - High
TTITLE1=James Blunt - You're Beautiful
TTITLE2=James Blunt - Wisemen
TTITLE3=James Blunt - Goodbye My Lover
TTITLE4=James Blunt - Tears And Rain
TTITLE5=James Blunt - Back To Bedlam - 06 - Out Of My Mind
TTITLE6=James Blunt - So Long Jimmy
TTITLE7=James Blunt - 08 James Blunt - Billy
TTITLE8=James Blunt - Cry
TTITLE9=James Blunt - No Bravery
EXTD=YEAR: 2005
EXTT0=
EXTT1=
EXTT2=
EXTT3=
EXTT4=
EXTT5=
EXTT6=
EXTT7=
EXTT8=
EXTT9=
PLAYORDER=
